<?xml version="1.0" encoding="UTF-8" standalone="no"?>
<!DOCTYPE svg PUBLIC "-//W3C//DTD SVG 1.1//EN" "http://www.w3.org/Graphics/SVG/1.1/DTD/svg11.dtd">
<svg width="100%" height="100%" viewBox="0 0 800 800" version="1.1" xmlns="http://www.w3.org/2000/svg" xmlns:xlink="http://www.w3.org/1999/xlink" xml:space="preserve" xmlns:serif="http://www.serif.com/" style="fill-rule:evenodd;clip-rule:evenodd;stroke-linejoin:round;stroke-miterlimit:2;">
    <g transform="matrix(1,0,0,1,-235,-1950)">
        <g transform="matrix(2.02015,0,0,2.02017,-51.8034,1393.69)">
            <rect x="142.327" y="275.741" width="396.011" height="396.011" style="fill:none;"/>
            <g transform="matrix(0.738826,0,0,0.738816,-812.043,-324.59)">
                <path d="M1560.6,875.199C1634.16,875.665 1693.74,935.528 1693.74,1009.2C1693.74,1011.04 1693.7,1012.87 1693.63,1014.7C1693.7,1014.85 1693.74,1015.01 1693.74,1015.17C1693.74,1101.34 1570.3,1187.84 1570.3,1263.84L1570.3,1275.37C1570.3,1281.19 1565.57,1285.92 1559.74,1285.92C1553.91,1285.92 1549.18,1281.19 1549.18,1275.37L1549.18,1263.84C1549.18,1187.84 1425.74,1101.34 1425.74,1015.17C1425.74,1015.01 1425.78,1014.85 1425.85,1014.7C1425.78,1012.87 1425.74,1011.04 1425.74,1009.2C1425.74,935.24 1485.78,875.197 1559.74,875.197L1560.6,875.199ZM1678.84,1016.34C1678.27,1056.24 1648.61,1095.69 1620.03,1134.49C1600.97,1160.37 1581.99,1185.83 1569.79,1210.46C1565.59,1218.94 1562.18,1227.35 1559.74,1235.67C1557.3,1227.35 1553.88,1218.94 1549.69,1210.46C1537.49,1185.83 1518.51,1160.37 1499.45,1134.49C1470.87,1095.69 1441.21,1056.24 1440.64,1016.34C1440.73,1015.6 1440.76,1014.85 1440.73,1014.1C1440.66,1012.47 1440.63,1010.84 1440.63,1009.2C1440.63,943.464 1493.99,890.096 1559.72,890.086L1560.53,890.088C1625.9,890.512 1678.85,943.721 1678.85,1009.2C1678.85,1010.84 1678.82,1012.47 1678.75,1014.1C1678.72,1014.85 1678.75,1015.6 1678.84,1016.34ZM1439.59,1020.44C1439.53,1020.57 1439.48,1020.7 1439.42,1020.82C1439.36,1020.95 1439.3,1021.08 1439.24,1021.21L1439.59,1020.44ZM1679.89,1020.44L1680.24,1021.21C1680.11,1020.95 1680,1020.7 1679.89,1020.44ZM1439.86,1019.72L1439.8,1019.88L1439.86,1019.72ZM1679.62,1019.74L1679.68,1019.88L1679.61,1019.72L1679.62,1019.74Z"/>
            </g>
            <g transform="matrix(0.786958,0,0,0.786948,-870.207,-348.847)">
                <path d="M1538.25,904.94C1580.61,904.94 1615,939.33 1615,981.69C1615,1024.05 1580.61,1058.44 1538.25,1058.44C1495.89,1058.44 1461.5,1024.05 1461.5,981.69C1461.5,939.33 1495.89,904.94 1538.25,904.94ZM1538.25,918.918C1572.9,918.918 1601.02,947.045 1601.02,981.69C1601.02,1016.34 1572.9,1044.46 1538.25,1044.46C1503.61,1044.46 1475.48,1016.34 1475.48,981.69C1475.48,947.045 1503.61,918.918 1538.25,918.918Z"/>
            </g>
        </g>
    </g>
</svg>
