<?xml version="1.0" encoding="UTF-8" standalone="no"?>
<!DOCTYPE svg PUBLIC "-//W3C//DTD SVG 1.1//EN" "http://www.w3.org/Graphics/SVG/1.1/DTD/svg11.dtd">
<svg width="100%" height="100%" viewBox="0 0 800 800" version="1.1" xmlns="http://www.w3.org/2000/svg" xmlns:xlink="http://www.w3.org/1999/xlink" xml:space="preserve" xmlns:serif="http://www.serif.com/" style="fill-rule:evenodd;clip-rule:evenodd;stroke-linejoin:round;stroke-miterlimit:2;">
    <g transform="matrix(1,0,0,1,-1159,-809)">
        <g transform="matrix(2.02015,0,0,2.02017,872.216,252.584)">
            <rect x="142.327" y="275.741" width="396.011" height="396.011" style="fill:none;"/>
            <g transform="matrix(1.25838,0,0,1.25838,-87.9366,-6.87928)">
                <g transform="matrix(0.587123,0,0,0.587115,-575.426,-252.169)">
                    <path d="M1560.6,875.199C1634.16,875.665 1693.74,935.528 1693.74,1009.2C1693.74,1011.04 1693.7,1012.87 1693.63,1014.7C1693.7,1014.85 1693.74,1015.01 1693.74,1015.17C1693.74,1101.34 1570.3,1187.84 1570.3,1263.84L1570.3,1275.37C1570.3,1281.19 1565.57,1285.92 1559.74,1285.92C1553.91,1285.92 1549.18,1281.19 1549.18,1275.37L1549.18,1263.84C1549.18,1187.84 1425.74,1101.34 1425.74,1015.17C1425.74,1015.01 1425.78,1014.85 1425.85,1014.7C1425.78,1012.87 1425.74,1011.04 1425.74,1009.2C1425.74,935.24 1485.78,875.197 1559.74,875.197L1560.6,875.199Z" style="fill:url(#_Linear1);"/>
                </g>
                <g transform="matrix(0.625372,0,0,0.625364,-621.647,-271.445)">
                    <path d="M1538.25,904.94C1580.61,904.94 1615,939.33 1615,981.69C1615,1024.05 1580.61,1058.44 1538.25,1058.44C1495.89,1058.44 1461.5,1024.05 1461.5,981.69C1461.5,939.33 1495.89,904.94 1538.25,904.94ZM1538.25,929.537C1567.04,929.537 1590.4,952.906 1590.4,981.69C1590.4,1010.47 1567.04,1033.84 1538.25,1033.84C1509.47,1033.84 1486.1,1010.47 1486.1,981.69C1486.1,952.906 1509.47,929.537 1538.25,929.537Z" style="fill:white;"/>
                </g>
            </g>
        </g>
    </g>
    <defs>
        <linearGradient id="_Linear1" x1="0" y1="0" x2="1" y2="0" gradientUnits="userSpaceOnUse" gradientTransform="matrix(2.55328e-14,-416.982,639.054,3.91307e-14,1559.74,1348.04)"><stop offset="0" style="stop-color:rgb(248,206,196);stop-opacity:1"/><stop offset="1" style="stop-color:rgb(200,83,168);stop-opacity:1"/></linearGradient>
    </defs>
</svg>
